<svg width="171" height="154" viewBox="0 0 171 154" fill="none" xmlns="http://www.w3.org/2000/svg">
<rect x="22" width="128" height="54" rx="5" fill="#FF85B8"/>
<rect x="12" y="12" width="148" height="62" rx="5" fill="#9876F8"/>
<path d="M0 37C0 27.6112 7.61116 20 17 20H47.407C58.0259 20 66.2113 39.757 76.8294 39.8906V39.8906C97.4633 40.1504 76.8294 48.2656 76.8294 48.2656V154H17C7.61117 154 0 146.389 0 137V37Z" fill="#4C5EF9"/>
<path d="M76 40H154C163.389 40 171 47.6112 171 57V137C171 146.389 163.389 154 154 154H76V40Z" fill="#4C5EF9"/>
</svg>
